<svg width="50" height="50" viewBox="0 0 50 50" fill="none" xmlns="http://www.w3.org/2000/svg">
<path d="M24.7201 36.2266C24.7201 36.2266 24.7201 20.0375 25.2576 20.0391C25.6732 20.0391 26.2139 40.9219 26.2139 40.9219C25.4701 40.8344 24.7201 37.4859 24.7201 36.2266ZM35.1389 20.2266C33.7029 13.9516 30.5576 8.55625 26.2201 4.39219L26.2092 4.38281C25.6811 3.57656 25.1982 2.65156 24.8107 1.67656L24.7732 1.57031C24.7748 1.60156 24.7748 1.63906 24.7748 1.67656C24.7748 2.55937 24.3795 3.34844 23.7561 3.87813L23.7514 3.88125C18.167 8.62187 14.6139 15.6078 14.4967 23.425V23.4453C14.4951 23.5422 14.4951 23.6563 14.4951 23.7703C14.4951 31.5156 18.2217 38.3906 23.9795 42.7L24.0404 42.7438L24.1764 42.8422C24.4274 44.7005 24.642 46.563 24.8201 48.4297H25.7592C26.0186 46.1 26.3686 44.0609 26.8264 42.0609L26.7545 42.4344C27.3732 42.0047 27.9139 41.5594 28.4186 41.0766L28.4139 41.0813C32.7904 37.0234 35.5217 31.2422 35.5217 24.825C35.5217 24.7297 35.5217 24.6359 35.5201 24.5406V24.5547C35.5154 23.0219 35.3764 21.5234 35.1123 20.0687L35.1357 20.2234L35.1389 20.2266Z" fill="#00ED64"/>
</svg>
