<svg class="svg-icon" style="width: 1em; height: 1em;vertical-align: middle;fill: currentColor;overflow: hidden;" viewBox="0 0 1024 1024" version="1.1" xmlns="http://www.w3.org/2000/svg"><path d="M620.442828 290.155403l146.494469 0c10.984169 0 19.916609-8.356318 19.916609-18.632359 0-10.273994-8.93244-18.632359-19.916609-18.632359L620.442828 252.890684c-10.984169 0-19.916609 8.358365-19.916609 18.632359C600.526219 281.799084 609.458659 290.155403 620.442828 290.155403L620.442828 290.155403zM620.442828 401.951605l146.494469 0c10.984169 0 19.916609-8.362458 19.916609-18.632359 0-10.280134-8.93244-18.632359-19.916609-18.632359L620.442828 364.686886c-10.984169 0-19.916609 8.353248-19.916609 18.632359C600.526219 393.59017 609.458659 401.951605 620.442828 401.951605L620.442828 401.951605zM841.154625 476.483088 620.755959 476.483088c-11.155061 0-20.22974 8.356318-20.22974 18.634406 0 10.273994 9.073656 18.631336 20.22974 18.631336l220.398666 0c11.157107 0 20.22974-8.356318 20.22974-18.631336C861.384365 484.839407 852.311733 476.483088 841.154625 476.483088L841.154625 476.483088zM493.801523 472.204645c-22.956851-24.76094-52.300156-42.795689-84.84948-52.166103l-2.744507-0.785899 2.515287-1.357927c35.18229-18.913768 57.038064-55.135738 57.038064-94.54019 0-59.369156-48.114834-107.665115-107.258862-107.665115-59.158355 0-107.287515 48.295959-107.287515 107.665115 0 39.391149 21.846564 75.610048 57.023738 94.523817l2.517333 1.359974-2.742461 0.794086c-32.460296 9.336646-61.747319 27.298739-84.700077 51.957349-23.423479 25.165146-39.216163 56.295144-45.659923 90.011037-0.99363 5.146207 0.072655 10.361999 3.001357 14.702863 2.930749 4.335748 7.397481 7.274684 12.526291 8.269337 1.293459 0.26299 2.599198 0.402159 3.892657 0.402159 9.217942 0 17.197684-6.723122 18.97926-15.994276 13.045107-68.312852 72.932056-117.891014 142.397151-117.891014 69.686129 0 129.605823 49.79408 142.474922 118.399597 1.732457 9.254781 9.804297 15.971763 19.183921 15.971763 1.293459 0 2.490727-0.106424 3.65218-0.331551 10.592242-2.013867 17.58347-12.296047 15.582907-22.917966C532.98801 528.734126 517.239328 497.472122 493.801523 472.204645L493.801523 472.204645zM358.502024 254.910691c37.591153 0 68.171636 30.703279 68.171636 68.443835 0 37.733393-30.580482 68.437695-68.171636 68.437695-37.60241 0-68.199265-30.705326-68.199265-68.437695C290.302759 285.612946 320.899614 254.910691 358.502024 254.910691L358.502024 254.910691z"  fill="white"/><path d="M935.914826 793.238312l-335.388607 0c-11.9471 0-18.631336-8.339946-18.631336-18.631336 0-10.29446 6.683213-18.634406 18.631336-18.634406l335.388607 0c11.941983 0 18.632359 8.339946 18.632359 18.634406C954.547185 784.898367 947.986769 793.238312 935.914826 793.238312L935.914826 793.238312zM544.630165 942.300256 134.708028 942.300256c-36.548404 0-55.898101-19.234063-55.898101-55.898101L78.809927 122.461099c0-36.669154 37.983079-74.53046 74.532507-74.53046l763.941056 0c36.546358 0 55.896054 19.228947 55.896054 55.898101l0 503.08291c0 12.116969-12.262278 32.910551-24.338315 32.910551-12.07399 0-31.55774-20.793582-31.55774-32.910551L917.28349 122.461099c0-12.468986-6.206352-18.632359-18.634406-18.632359L153.343457 103.82874c-12.428054 0-18.634406 6.163373-18.634406 18.632359l0 745.307673c0 12.468986 6.206352 18.632359 18.634406 18.632359l409.91702 0c12.069897 0 22.64065 21.844517 22.64065 33.954323 0 12.128225-9.79918 21.943778-21.869077 21.943778L544.630165 942.300256 544.630165 942.300256zM792.343943 942.300256c-5.617951 0-11.247158-2.004657-15.533788-6.008854-8.587586-8.012488-8.587586-20.983917 0-28.990265l141.43729-127.077234L776.810155 643.910309c-8.587586-8.002254-8.587586-20.990057 0-28.996404 8.584516-8.002254 22.4892-8.002254 31.079856 0l156.707065 146.193617c8.584516 7.999185 8.584516 20.990057 0 28.992311L807.888987 936.291402C803.594171 940.2956 797.971104 942.300256 792.343943 942.300256L792.343943 942.300256z" fill="white" /></svg>