<svg width="50" height="50" viewBox="0 0 50 50" fill="none" xmlns="http://www.w3.org/2000/svg">
<g clip-path="url(#clip0_199_646)">
<path fill-rule="evenodd" clip-rule="evenodd" d="M27.0695 17.8125L23.5833 18.5608V15.7343L27.0695 15V17.8125ZM34.3193 19.3782C32.9581 19.3782 32.0831 20.0155 31.5971 20.4589L31.4165 19.5999H28.3609V35.7548L31.8331 35.0205L31.8471 31.0995C32.3471 31.4597 33.0831 31.9723 34.3054 31.9723C36.7915 31.9723 39.0554 29.9772 39.0554 25.5852C39.0415 21.5672 36.7498 19.3782 34.3193 19.3782ZM33.4859 28.9242C32.6665 28.9242 32.1803 28.6333 31.847 28.273L31.8331 23.1328C32.1942 22.731 32.6942 22.454 33.4859 22.454C34.7498 22.454 35.6248 23.8671 35.6248 25.6821C35.6248 27.5387 34.7636 28.9242 33.4859 28.9242ZM50 25.7237C50 22.1768 48.2777 19.3782 44.9861 19.3782C41.6806 19.3782 39.6806 22.1768 39.6806 25.696C39.6806 29.8663 42.0417 31.9723 45.4306 31.9723C47.0833 31.9723 48.3333 31.5982 49.2777 31.0717V28.3008C48.3333 28.7718 47.25 29.0628 45.875 29.0628C44.5277 29.0628 43.3333 28.5917 43.1806 26.9568H49.9723C49.9723 26.8806 49.9773 26.7073 49.9829 26.5076C49.9908 26.236 50 25.9153 50 25.7237ZM43.1388 24.4075C43.1388 22.8419 44.0972 22.1908 44.9722 22.1908C45.8194 22.1908 46.7222 22.8419 46.7222 24.4075H43.1388ZM23.5831 19.6137H27.0693V31.7368H23.5831V19.6137ZM19.6251 19.6137L19.8474 20.639C20.6668 19.1426 22.2918 19.4474 22.7362 19.6137V22.8004C22.3057 22.6479 20.9168 22.454 20.0974 23.5209V31.7368H16.6251V19.6137H19.6251ZM12.9026 16.6071L9.51373 17.3276L9.4999 28.4255C9.4999 30.4759 11.0416 31.9861 13.0971 31.9861C14.236 31.9861 15.0693 31.7784 15.5276 31.529V28.7164C15.0832 28.8965 12.8887 29.5339 12.8887 27.4833V22.5648H15.5276V19.6137H12.8887L12.9026 16.6071ZM4.69451 22.3848C3.95833 22.3848 3.51392 22.5925 3.51392 23.1329C3.51392 23.7229 4.27882 23.9824 5.22775 24.3044C6.77471 24.8293 8.81088 25.5201 8.81951 28.0791C8.81951 30.5592 6.83333 31.9862 3.94451 31.9862C2.75 31.9862 1.44441 31.7507 0.152745 31.1965V27.899C1.31941 28.5363 2.79167 29.0074 3.94451 29.0074C4.72226 29.0074 5.27784 28.7996 5.27784 28.1622C5.27784 27.5088 4.44863 27.2101 3.44765 26.8495C1.92314 26.3003 0 25.6074 0 23.2992C0 20.8468 1.875 19.3782 4.69451 19.3782C5.84725 19.3782 6.98618 19.5583 8.13892 20.0156V23.2714C7.08333 22.7034 5.75 22.3848 4.69451 22.3848Z" fill="#645CFF"/>
</g>
<defs>
<clipPath id="clip0_199_646">
<rect width="50" height="50" fill="white"/>
</clipPath>
</defs>
</svg>
