<svg width="50" height="50" viewBox="0 0 50 50" fill="none" xmlns="http://www.w3.org/2000/svg">
<path d="M7.16232 28.3438C7.3144 27.7583 7.47274 27.1771 7.62482 26.5896C8.21649 24.3333 8.8019 22.0688 9.40607 19.8104C9.62482 18.8896 9.94565 18.0792 10.3623 17.3313L10.3373 17.3813C10.7852 16.6083 11.5519 16.0646 12.454 15.925L12.4707 15.9229C12.6811 15.875 12.9248 15.8479 13.1748 15.8479C14.1477 15.8479 15.0227 16.2604 15.6373 16.9208L15.6394 16.9229C15.9227 17.2479 16.1457 17.6333 16.2852 18.0563L16.2915 18.0792C16.6769 19.1042 17.0769 20.4229 17.4061 21.7708L17.4582 22.0292C18.0012 24.0875 18.547 26.1472 19.0957 28.2083C19.1082 28.2563 19.0957 28.3125 19.1644 28.3542C19.2811 27.8917 19.4061 27.4333 19.5227 26.9771C20.2311 24.2174 20.938 21.4604 21.6436 18.7063C21.7727 18.1896 21.9061 17.675 22.0415 17.1583C22.1436 16.7729 22.2998 16.4375 22.504 16.1354L22.4957 16.1479C22.8061 15.6875 23.2873 15.3646 23.8477 15.2688L23.8602 15.2667C24.5123 15.1313 25.2644 15.0521 26.0352 15.05H26.0373C26.1894 15.05 26.2165 15.0854 26.1832 15.2292C25.5359 17.7 24.8915 20.1708 24.2498 22.6417C23.2998 26.2958 22.3477 29.9479 21.3936 33.5979C21.2977 33.9563 21.2082 34.3208 21.1123 34.6771C21.0915 34.7458 21.0832 34.8063 20.9894 34.8146C20.8436 34.8292 20.6748 34.8375 20.5019 34.8375C19.954 34.8375 19.4248 34.7563 18.9269 34.6063L18.9644 34.6167C18.7102 34.5271 18.4957 34.3875 18.3186 34.2104C18.0686 33.9771 17.8373 33.7333 17.6207 33.4792L17.6102 33.4667C17.3748 33.1146 17.1686 32.7104 17.0123 32.2813L16.9998 32.2417C16.4477 30.9104 15.9477 29.3188 15.5852 27.675L15.5498 27.4792C14.9644 25.1458 14.3665 22.8125 13.7748 20.4792C13.7373 20.3333 13.6769 20.2042 13.5936 20.0917L13.5957 20.0938C13.5061 19.9333 13.3352 19.825 13.1415 19.825C13.1373 19.825 13.1352 19.825 13.1311 19.825C12.8957 19.8479 12.704 20.0063 12.6332 20.2188L12.6311 20.2229C12.4311 20.8563 12.2873 21.5021 12.1144 22.1438C11.4186 24.8271 10.7436 27.5188 10.029 30.1958C9.81649 30.9938 9.4644 31.7438 9.19565 32.5292C8.90815 33.2813 8.4269 33.9042 7.81024 34.3542L7.79982 34.3625C7.51857 34.5792 7.17482 34.725 6.79774 34.7688H6.78732C6.46649 34.8125 6.09357 34.8354 5.71649 34.8354C5.60399 34.8354 5.49357 34.8333 5.38107 34.8292H5.39774C5.27482 34.8292 5.23107 34.7813 5.19149 34.6625C4.52482 32.1306 3.8526 29.6007 3.17482 27.0729C2.29843 23.7618 1.41649 20.4445 0.528986 17.1208L0.0331522 15.2417C0.0206522 15.1792 -0.0335145 15.0896 0.0956522 15.0771C0.314402 15.0458 0.566486 15.0292 0.822736 15.0292C1.65399 15.0292 2.44357 15.2146 3.14982 15.5458L3.11649 15.5313C3.60399 15.7854 3.97065 16.2188 4.13107 16.7417L4.13524 16.7563C4.49357 17.9229 4.76232 19.1021 5.0644 20.2792C5.7519 22.9361 6.43524 25.5931 7.1144 28.25C7.12065 28.2854 7.13107 28.3188 7.14357 28.35L7.14149 28.3479L7.16232 28.3438Z" fill="white"/>
<path d="M31.9644 34.8729C32.1706 34.5625 32.356 34.2875 32.5435 34.0062C34.5435 31.0257 36.5435 28.0479 38.5435 25.0729C38.5664 25.0437 38.581 25.0062 38.581 24.9667C38.581 24.9187 38.5623 24.8771 38.5289 24.8458C36.8706 22.3819 35.2144 19.918 33.5602 17.4542L32.0602 15.1979C32.0394 15.1625 31.9914 15.1292 32.006 15.0604L33.0248 15.1229C33.6581 15.1646 34.2789 15.2062 34.9039 15.2396C35.4123 15.3021 35.8644 15.5083 36.2289 15.8146L36.2248 15.8104C36.5539 16.0604 36.831 16.3604 37.0498 16.6979L37.0581 16.7125C38.1373 18.35 39.2039 19.9958 40.3269 21.6C40.8269 22.3083 41.0414 22.2396 41.5727 21.7167C41.8352 21.4062 42.0769 21.0583 42.2852 20.6896L42.3019 20.6562C43.231 19.2729 44.1477 17.8771 45.0956 16.5062C45.6227 15.7687 46.4331 15.2646 47.3644 15.1521L47.3789 15.15C47.9519 15.0854 48.6164 15.05 49.2873 15.05C49.5039 15.05 49.7206 15.0542 49.9352 15.0604H49.9039C50.0706 15.0604 49.9664 15.15 49.9331 15.1979C49.4706 15.8854 49.0123 16.575 48.5435 17.2625C46.8491 19.793 45.156 22.316 43.4644 24.8312C43.4352 24.8667 43.4164 24.9146 43.4164 24.9646C43.4164 25.0229 43.4394 25.075 43.4769 25.1125C45.6241 28.3055 47.7692 31.4986 49.9123 34.6917C49.9414 34.7396 50.0081 34.7875 49.9873 34.8375C49.9664 34.8875 49.8706 34.8667 49.8206 34.8667C49.6352 34.8729 49.4185 34.8771 49.1998 34.8771C48.5894 34.8771 47.9852 34.8479 47.3894 34.7937L47.4664 34.8C46.5831 34.6896 45.8123 34.2792 45.2456 33.6729L45.2435 33.6708C44.9664 33.3375 44.7081 32.9667 44.4852 32.5729L44.4644 32.5354C43.5623 31.1875 42.6685 29.8375 41.7664 28.4812C41.6248 28.2604 41.4456 28.0771 41.2373 27.9354L41.231 27.9312C41.1623 27.8687 41.0706 27.8312 40.9685 27.8312C40.8664 27.8312 40.7748 27.8687 40.706 27.9333C40.5539 28.0396 40.4269 28.1708 40.3248 28.3208L40.3206 28.3271C39.1852 29.95 38.1331 31.6312 37.031 33.2812C36.5081 34.0521 35.6998 34.5958 34.7602 34.7583L34.7394 34.7604C34.2935 34.8375 33.7789 34.8792 33.2539 34.8792C33.106 34.8792 32.9581 34.875 32.8123 34.8687H32.8331L31.9644 34.8729Z" fill="white"/>
<path d="M30.4979 18.2458V18.5146C30.4979 23.084 30.5021 27.6535 30.5104 32.2229C30.5104 32.2479 30.5125 32.275 30.5125 32.3042C30.5125 33.2417 29.9958 34.0604 29.2313 34.4875L29.2188 34.4938C28.9521 34.6646 28.6333 34.7813 28.2917 34.8167H28.2813C27.9646 34.8521 27.6 34.8708 27.2292 34.8708C27.2083 34.8708 27.1854 34.8708 27.1646 34.8708H27.1688C26.9417 34.8708 26.9417 34.8708 26.9417 34.65C26.9417 32.1792 26.9417 29.7083 26.9292 27.2375C26.9292 25.1583 26.9083 23.0875 26.9292 21.0083C26.9479 20.6146 27.1688 20.2792 27.4896 20.0958L27.4958 20.0938C27.8 19.8938 28.1354 19.7604 28.4521 19.5833C29.0854 19.2771 29.625 18.9563 30.1333 18.5958L30.0979 18.6208C30.2146 18.5104 30.3375 18.3875 30.5021 18.2417L30.4979 18.2458Z" fill="white"/>
<path d="M26.8998 19.1292C26.8998 19.1042 26.8998 19.075 26.8998 19.0458C26.8998 18.4583 26.9748 17.8896 27.1165 17.3479L27.1061 17.3938C27.2936 16.7146 27.6811 16.1438 28.2019 15.7313L28.2081 15.7271C28.6894 15.3917 29.2706 15.1646 29.8977 15.0958L29.9144 15.0938C30.0998 15.0583 30.2852 15.0458 30.4706 15.0188C30.6227 14.9896 30.6644 15.0729 30.6706 15.2042C30.6706 15.2333 30.6727 15.2708 30.6727 15.3063C30.6727 15.5542 30.6498 15.7979 30.6061 16.0354L30.6102 16.0104C30.4727 16.85 30.0894 17.5833 29.5352 18.1521C29.2186 18.45 28.8373 18.6833 28.4144 18.8271L28.3936 18.8333C27.9102 19.0104 27.4915 19.2354 27.1123 19.5104L27.1269 19.5C27.0727 19.5417 27.0102 19.6229 26.9331 19.5833C26.8561 19.5438 26.8977 19.4458 26.8915 19.3771C26.8852 19.3083 26.8977 19.2063 26.8977 19.1313L26.8998 19.1292Z" fill="white"/>
</svg>
